<svg xmlns="http://www.w3.org/2000/svg" viewBox="0 0 841.9 595.3">
  <g fill="#61DAFB">
    <path d="M666.3 296.5c0-32.5-40.7-63.3-103.1-82.4 14.4-63.6 8-114.2-20.2-130.4-6.5-3.8-14.1-5.6-22.4-5.6v22.3c4.6 0 8.3.9 11.4 2.6 13.6 7.8 19.5 60.5-14.7 127.7-42.8-28.8-96.5-44.6-156.3-44.6-54.6 0-105.8 13.8-149.5 37.9-8.1-11.5-16.3-22.3-24.5-32.3 50.8-38.3 115.4-61.5 187.6-61.5 77.4 0 147.4 26.1 190.1 68.1 3.7 3.7 6.9 7.5 10.1 11.3 12.7-10.8 20.7-17.7 20.7-17.7-58.6-56.6-157.5-58.6-210.8-30.3-4.4 2.3-8.6 4.8-12.8 7.4-1.5.9-3.1 1.9-4.6 2.9-1.5 1-3 2-4.5 3.1-1.3 1-2.6 2-3.9 3.1-1.3 1.1-2.6 2.1-3.9 3.2-1.2 1-2.4 2.1-3.6 3.2-1.2 1.1-2.4 2.2-3.5 3.3-1.2 1.1-2.3 2.2-3.5 3.4-1.1 1.1-2.1 2.3-3.2 3.5-1 1.1-2 2.2-3 3.4-.9 1.1-1.8 2.2-2.7 3.4-.9 1.1-1.7 2.3-2.5 3.5-.8 1.2-1.6 2.3-2.4 3.5-.8 1.2-1.5 2.4-2.2 3.6-.7 1.2-1.4 2.4-2 3.7-.7 1.2-1.3 2.5-1.9 3.8-.6 1.3-1.1 2.5-1.6 3.8-.5 1.3-.9 2.6-1.4 3.9-.4 1.3-.8 2.6-1.2 3.9-.4 1.3-.7 2.6-1 4-.3 1.3-.6 2.6-.9 3.9-.2 1.3-.5 2.6-.7 4-.2 1.3-.4 2.6-.5 4-.1 1.3-.2 2.6-.3 4 0 1.3-.1 2.6-.1 4v8c0 1.3 0 2.6.1 4 .1 1.3.2 2.6.4 4 .2 1.3.4 2.6.7 4 .3 1.3.6 2.6 1 4 .3 1.3.7 2.6 1.2 3.9.4 1.3.9 2.6 1.4 3.9.5 1.3 1 2.5 1.6 3.8.6 1.3 1.2 2.5 1.9 3.8.7 1.2 1.4 2.4 2.2 3.6.8 1.2 1.6 2.3 2.5 3.5.8 1.1 1.7 2.3 2.7 3.4 1 1.1 2 2.2 3 3.4 1.1 1.1 2.1 2.3 3.2 3.5 1.1 1.1 2.3 2.2 3.5 3.3 1.2 1.1 2.4 2.1 3.6 3.2 1.3 1.1 2.6 2.1 3.9 3.1 1.5 1 3 2 4.5 3.1 1.5.9 3.1 1.9 4.6 2.9 4.2 2.6 8.4 5.1 12.8 7.4 53.3 28.3 152.2 26.3 210.8-30.3 0 0-8 6.9-20.7 17.7 3.2 3.8 6.4 7.6 10.1 11.3 42.7 42 112.7 68.1 190.1 68.1 72.2 0 136.8-23.2 187.6-61.5-8.2-10-16.4-20.8-24.5-32.3-43.7 24.1-94.9 37.9-149.5 37.9-59.8 0-113.5-15.8-156.3-44.6 32.6 67.2 28.3 120-14.7 127.7-3 .9-6.7 1.4-11.4 1.4v22.3c8.3 0 15.9-1.9 22.4-5.6 28.1-16.2 34.6-66.8 20.2-130.4 62.4-19.1 103.1-49.9 103.1-82.3zm-130.5 54.9c-3.7 12.9-8.3 26.2-13.5 39.5-4.1-10.8-8.4-21.3-12.9-31.3-4.6-10-9.2-19.6-13.9-28.8 7.6-4.3 15.4-8.2 23.4-11.7 8 3.5 15.8 7.4 23.4 11.7-4.7 9.2-9.3 18.8-13.9 28.8-4.5 10-8.8 20.5-12.9 31.3-5.2-13.3-9.8-26.6-13.5-39.5-3.7-12.9-6.5-25.4-8.5-37.4 2-12 4.8-24.5 8.5-37.4 3.7-12.9 8.3-26.2 13.5-39.5 4.1 10.8 8.4 21.3 12.9 31.3 4.6 10 9.2 19.6 13.9 28.8-7.6 4.3-15.4 8.2-23.4 11.7-8-3.5-15.8-7.4-23.4-11.7 4.7-9.2 9.3-18.8 13.9-28.8 4.5-10 8.8-20.5 12.9-31.3 5.2 13.3 9.8 26.6 13.5 39.5 3.7 12.9 6.5 25.4 8.5 37.4-2 12-4.8 24.5-8.5 37.4z"/>
    <ellipse cx="420.9" cy="296.5" rx="45.7" ry="46.5"/>
  </g>
</svg>
